<svg xmlns="http://www.w3.org/2000/svg" style="display: none;">
<symbol id="icon-instagram" viewBox="0 0 24 24" xmlns="http://www.w3.org/2000/svg">
      
    <path d="M7.75 2h8.5A5.75 5.75 0 0 1 22 7.75v8.5A5.75 5.75 0 0 1 16.25 22h-8.5A5.75 5.75 0 0 1 2 16.25v-8.5A5.75 5.75 0 0 1 7.75 2Zm0 1.5A4.25 4.25 0 0 0 3.5 7.75v8.5A4.25 4.25 0 0 0 7.75 20.5h8.5a4.25 4.25 0 0 0 4.25-4.25v-8.5A4.25 4.25 0 0 0 16.25 3.5h-8.5Zm8 2a1 1 0 1 1 0 2 1 1 0 0 1 0-2ZM12 7a5 5 0 1 1 0 10 5 5 0 0 1 0-10Zm0 1.5a3.5 3.5 0 1 0 0 7 3.5 3.5 0 0 0 0-7Z"/>
    
    </symbol>
<symbol id="icon-twitter" viewBox="0 0 24 24" xmlns="http://www.w3.org/2000/svg">
      
    <path d="M21 5.26c-.77.35-1.6.58-2.46.69a4.3 4.3 0 0 0 1.88-2.37 8.59 8.59 0 0 1-2.72 1.04 4.28 4.28 0 0 0-7.3 3.9A12.13 12.13 0 0 1 3.15 4.44a4.28 4.28 0 0 0 1.33 5.72 4.26 4.26 0 0 1-1.94-.54v.05a4.28 4.28 0 0 0 3.43 4.2 4.3 4.3 0 0 1-1.93.07 4.28 4.28 0 0 0 4 2.97 8.6 8.6 0 0 1-5.32 1.84A8.76 8.76 0 0 1 2 19.54a12.14 12.14 0 0 0 6.56 1.92c7.88 0 12.2-6.53 12.2-12.2v-.56A8.72 8.72 0 0 0 22 6.3a8.46 8.46 0 0 1-1.94.53A4.3 4.3 0 0 0 21 5.26Z"/>
    
    </symbol>
<symbol id="icon-facebook" viewBox="0 0 24 24" xmlns="http://www.w3.org/2000/svg">
      
    <path d="M15 2h2a1 1 0 0 1 1 1v3h-3v2h3v3h-3v8h-4v-8H9v-3h2V6a4 4 0 0 1 4-4Z"/>
    
    </symbol>
<symbol id="icon-linkedin" viewBox="0 0 24 24" xmlns="http://www.w3.org/2000/svg">
      
    <path d="M4 3.5a2.12 2.12 0 1 1 4.24 0A2.12 2.12 0 0 1 4 3.5ZM2.5 8.25h3V21h-3v-12.75Zm6.75 0h2.86v1.7h.04a3.14 3.14 0 0 1 2.83-1.55c3.03 0 3.59 1.99 3.59 4.59V21h-3v-6.47c0-1.54-.03-3.52-2.15-3.52-2.15 0-2.48 1.67-2.48 3.4V21h-3v-12.75Z"/>
    
    </symbol>
</svg>