<svg xmlns="http://www.w3.org/2000/svg" style="display: none;">
<symbol id="icon-instagram" viewBox="0 0 24 24" xmlns="http://www.w3.org/2000/svg">
      
    <path d="M7.75 2h8.5A5.75 5.75 0 0 1 22 7.75v8.5A5.75 5.75 0 0 1 16.25 22h-8.5A5.75 5.75 0 0 1 2 16.25v-8.5A5.75 5.75 0 0 1 7.75 2Zm0 1.5A4.25 4.25 0 0 0 3.5 7.75v8.5A4.25 4.25 0 0 0 7.75 20.5h8.5a4.25 4.25 0 0 0 4.25-4.25v-8.5A4.25 4.25 0 0 0 16.25 3.5h-8.5Zm8 2a1 1 0 1 1 0 2 1 1 0 0 1 0-2ZM12 7a5 5 0 1 1 0 10 5 5 0 0 1 0-10Zm0 1.5a3.5 3.5 0 1 0 0 7 3.5 3.5 0 0 0 0-7Z"/>
    
    </symbol>
<symbol id="icon-twitter" viewBox="0 0 24 24" xmlns="http://www.w3.org/2000/svg">
      
    <path d="M21 5.26c-.77.35-1.6.58-2.46.69a4.3 4.3 0 0 0 1.88-2.37 8.59 8.59 0 0 1-2.72 1.04 4.28 4.28 0 0 0-7.3 3.9A12.13 12.13 0 0 1 3.15 4.44a4.28 4.28 0 0 0 1.33 5.72 4.26 4.26 0 0 1-1.94-.54v.05a4.28 4.28 0 0 0 3.43 4.2 4.3 4.3 0 0 1-1.93.07 4.28 4.28 0 0 0 4 2.97 8.6 8.6 0 0 1-5.32 1.84A8.76 8.76 0 0 1 2 19.54a12.14 12.14 0 0 0 6.56 1.92c7.88 0 12.2-6.53 12.2-12.2v-.56A8.72 8.72 0 0 0 22 6.3a8.46 8.46 0 0 1-1.94.53A4.3 4.3 0 0 0 21 5.26Z"/>
    
    </symbol>
<symbol id="icon-facebook" viewBox="0 0 24 24" xmlns="http://www.w3.org/2000/svg">
      
    <path d="M15 2h2a1 1 0 0 1 1 1v3h-3v2h3v3h-3v8h-4v-8H9v-3h2V6a4 4 0 0 1 4-4Z"/>
    
    </symbol>
<symbol id="icon-linkedin" viewBox="0 0 24 24" xmlns="http://www.w3.org/2000/svg">
      
    <path d="M4 3.5a2.12 2.12 0 1 1 4.24 0A2.12 2.12 0 0 1 4 3.5ZM2.5 8.25h3V21h-3v-12.75Zm6.75 0h2.86v1.7h.04a3.14 3.14 0 0 1 2.83-1.55c3.03 0 3.59 1.99 3.59 4.59V21h-3v-6.47c0-1.54-.03-3.52-2.15-3.52-2.15 0-2.48 1.67-2.48 3.4V21h-3v-12.75Z"/>
    
    </symbol>

    <svg xmlns="http://www.w3.org/2000/svg" style="display: none">
  <symbol id="icon-person" viewBox="0 0 32 32">
    <path d="M16 16a8 8 0 1 0-8-8 8.009 8.009 0 0 0 8 8zm0 4c-5.333 0-16 2.667-16 8v4h32v-4c0-5.333-10.667-8-16-8z"/>
  </symbol>

  < xmlns="http://www.w3.org/2000/svg" style="display: none">
  <!-- Email Icon -->
  <symbol id="icon-email" viewBox="0 0 18 24">
    <path d="M15 6H3C2.175 6 1.5075 6.675 1.5075 7.5L1.5 16.5C1.5 17.325 2.175 18 3 18H15C15.825 18 16.5 17.325 16.5 16.5V7.5C16.5 6.675 15.825 6 15 6ZM14.7 9.1875L9.3975 12.5025C9.1575 12.6525 8.8425 12.6525 8.6025 12.5025L3.3 9.1875C3.1125 9.0675 3 8.865 3 8.6475C3 8.145 3.5475 7.845 3.975 8.1075L9 11.25L14.025 8.1075C14.4525 7.845 15 8.145 15 8.6475C15 8.865 14.8875 9.0675 14.7 9.1875Z" fill="currentColor"/>
    <rect width="18" height="24" fill="currentColor"/>
  </symbol>

  <!-- Phone Icon -->
  <symbol id="icon-phone" viewBox="0 0 18 24">
    <path d="M14.7263 13.8651L12.8881 13.6552C12.4467 13.6046 12.0125 13.7566 11.7013 14.0677L10.3697 15.3993C8.3217 14.3572 6.64276 12.6855 5.60067 10.6303L6.93947 9.29144C7.25065 8.98025 7.40263 8.54605 7.35197 8.1046L7.1421 6.28092C7.05526 5.55 6.44013 5 5.70198 5H4.45002C3.63226 5 2.952 5.68026 3.00266 6.49802C3.38621 12.6783 8.32894 17.6138 14.5019 17.9973C15.3197 18.048 15.9999 17.3677 15.9999 16.55V15.298C16.0072 14.5671 15.4572 13.952 14.7263 13.8651Z" fill="currentColor"/>
    <rect width="18" height="24" fill="currentColor"/>
  </symbol>

  <!-- Person Icon -->
  <symbol id="icon-person" viewBox="0 0 24 24">
    <path d="M9 12C10.6575 12 12 10.6575 12 9C12 7.3425 10.6575 6 9 6C7.3425 6 6 7.3425 6 9C6 10.6575 7.3425 12 9 12ZM9 13.5C6.9975 13.5 3 14.505 3 16.5V17.25C3 17.6625 3.3375 18 3.75 18H14.25C14.6625 18 15 17.6625 15 17.25V16.5C15 14.505 11.0025 13.5 9 13.5Z" fill="currentColor"/>
    <line x1="22.625" y1="3.625" x2="22.625" y2="20.375" stroke="#2E2F42" stroke-width="1.25" stroke-linecap="round"/>
    <rect width="18" height="18" fill="currentColor" transform="translate(0 3)"/>
  </symbol>

<symbol id="icon-check" viewBox="0 0 32 32">
  <path fill="currentColor" d="M12 20.2L5.8 14 3 16.8 12 25.8 29 8.8 26.2 6z" />
</symbol>
</svg>
</svg>