<svg style="display:none" xmlns="http://www.w3.org/2000/svg">

  <!-- icon-person -->
  <symbol id="icon-person" viewBox="0 0 18 18">
    <path d="M9 9C10.6575 9 12 7.6575 12 6C12 4.3425 10.6575 3 9 3C7.3425 3 6 4.3425 6 6C6 7.6575 7.3425 9 9 9ZM9 10.5C6.9975 10.5 3 11.505 3 13.5V14.25C3 14.6625 3.3375 15 3.75 15H14.25C14.6625 15 15 14.6625 15 14.25V13.5C15 11.505 11.0025 10.5 9 10.5Z"/>
  </symbol>

  <!-- icon-email -->
  <symbol id="icon-email" viewBox="0 0 20 16">
    <path d="M18 0H2C0.9 0 0.01 0.9 0.01 2L0 14c0 1.1 0.89 2 1.99 2H18c1.1 0 2-0.9 2-2V2c0-1.1-0.9-2-2-2zm0 4l-8 5L2 4V2l8 5 8-5v2z"/>
  </symbol>

  <!-- icon-phone -->
  <symbol id="icon-phone" viewBox="0 0 16 16">
    <path d="M3.654 1.328a.678.678 0 00-1.015-.063L1.605 2.3c-.483.484-.661 1.169-.448 1.77a17.568 17.568 0 004.168 6.608 17.568 17.568 0 006.608 4.168c.601.213 1.286.035 1.77-.448l1.035-1.034a.678.678 0 00-.063-1.015l-2.29-1.53a.678.678 0 00-.58-.093l-1.745.582a13.578 13.578 0 01-5.292-5.292l.582-1.745a.678.678 0 00-.093-.58L3.654 1.328z"/>
  </symbol>

  <!-- icon-check -->
  <symbol id="icon-check" viewBox="0 0 10 8">
    <path d="M8.44558 0.255056C8.61838 0.089653 8.84834 -0.00178848 9.08693 2.65108e-05C9.32551 0.0018415 9.55407 0.0967713 9.72436 0.264784C9.89466 0.432797 9.99337 0.660752 9.99968 0.900549C10.006 1.14034 9.91939 1.37323 9.75816 1.55005L4.86357 7.70436C4.7794 7.79551 4.67782 7.86865 4.5649 7.91942C4.45198 7.97018 4.33003 7.99754 4.20636 7.99984C4.08268 8.00214 3.95981 7.97935 3.8451 7.93282C3.73038 7.88629 3.62618 7.81698 3.53872 7.72903L0.292827 4.46564C0.202435 4.38096 0.129933 4.27884 0.0796475 4.16537C0.0293621 4.05191 0.00232279 3.92942 0.000143182 3.80522C-0.00203643 3.68102 0.0206883 3.55765 0.0669613 3.44248C0.113234 3.3273 0.182108 3.22267 0.269473 3.13483C0.356838 3.047 0.460905 2.97775 0.575465 2.93123C0.690026 2.88471 0.812734 2.86186 0.936267 2.86405C1.0598 2.86624 1.18163 2.89343 1.29449 2.94398C1.40734 2.99454 1.50892 3.06743 1.59315 3.15831L4.16189 5.73967L8.42227 0.28219C8.42994 0.272694 8.43813 0.263635 8.4468 0.255056H8.44558Z"/>
  </symbol>

  <!-- icon-close -->
  <symbol id="icon-close" viewBox="0 0 8 8">
    <path d="M8 0.805714L7.19429 0L4 3.19429L0.805714 0L0 0.805714L3.19429 4L0 7.19429L0.805714 8L4 4.80571L7.19429 8L8 7.19429L4.80571 4L8 0.805714Z"/>
  </symbol>
<symbol id="icon-send" viewBox="0 0 24 20">
  <path d="M24 0L0 11.25L7.66994 13.6172L19.5 4.375L10.5017 14.4913L10.509 14.4936L10.5 14.4913V20L14.8013 15.8183L20.2501 17.5L24 0Z"/>
</symbol>

</svg>