<svg xmlns="http://www.w3.org/2000/svg" style="display: none;">
<symbol id="icon-instagram" viewBox="0 0 24 24" xmlns="http://www.w3.org/2000/svg">
      
    <path d="M7.75 2h8.5A5.75 5.75 0 0 1 22 7.75v8.5A5.75 5.75 0 0 1 16.25 22h-8.5A5.75 5.75 0 0 1 2 16.25v-8.5A5.75 5.75 0 0 1 7.75 2Zm0 1.5A4.25 4.25 0 0 0 3.5 7.75v8.5A4.25 4.25 0 0 0 7.75 20.5h8.5a4.25 4.25 0 0 0 4.25-4.25v-8.5A4.25 4.25 0 0 0 16.25 3.5h-8.5Zm8 2a1 1 0 1 1 0 2 1 1 0 0 1 0-2ZM12 7a5 5 0 1 1 0 10 5 5 0 0 1 0-10Zm0 1.5a3.5 3.5 0 1 0 0 7 3.5 3.5 0 0 0 0-7Z"/>
    
    </symbol>
<symbol id="icon-twitter" viewBox="0 0 24 24" xmlns="http://www.w3.org/2000/svg">
      
    <path d="M21 5.26c-.77.35-1.6.58-2.46.69a4.3 4.3 0 0 0 1.88-2.37 8.59 8.59 0 0 1-2.72 1.04 4.28 4.28 0 0 0-7.3 3.9A12.13 12.13 0 0 1 3.15 4.44a4.28 4.28 0 0 0 1.33 5.72 4.26 4.26 0 0 1-1.94-.54v.05a4.28 4.28 0 0 0 3.43 4.2 4.3 4.3 0 0 1-1.93.07 4.28 4.28 0 0 0 4 2.97 8.6 8.6 0 0 1-5.32 1.84A8.76 8.76 0 0 1 2 19.54a12.14 12.14 0 0 0 6.56 1.92c7.88 0 12.2-6.53 12.2-12.2v-.56A8.72 8.72 0 0 0 22 6.3a8.46 8.46 0 0 1-1.94.53A4.3 4.3 0 0 0 21 5.26Z"/>
    
    </symbol>
<symbol id="icon-facebook" viewBox="0 0 24 24" xmlns="http://www.w3.org/2000/svg">
      
    <path d="M15 2h2a1 1 0 0 1 1 1v3h-3v2h3v3h-3v8h-4v-8H9v-3h2V6a4 4 0 0 1 4-4Z"/>
    
    </symbol>
<symbol id="icon-linkedin" viewBox="0 0 24 24" xmlns="http://www.w3.org/2000/svg">
      
    <path d="M4 3.5a2.12 2.12 0 1 1 4.24 0A2.12 2.12 0 0 1 4 3.5ZM2.5 8.25h3V21h-3v-12.75Zm6.75 0h2.86v1.7h.04a3.14 3.14 0 0 1 2.83-1.55c3.03 0 3.59 1.99 3.59 4.59V21h-3v-6.47c0-1.54-.03-3.52-2.15-3.52-2.15 0-2.48 1.67-2.48 3.4V21h-3v-12.75Z"/>
    
    </symbol>

    <svg xmlns="http://www.w3.org/2000/svg" style="display: none">
  <symbol id="icon-person" viewBox="0 0 32 32">
    <path d="M16 16a8 8 0 1 0-8-8 8.009 8.009 0 0 0 8 8zm0 4c-5.333 0-16 2.667-16 8v4h32v-4c0-5.333-10.667-8-16-8z"/>
  </symbol>

  <symbol id="icon-phone" viewBox="0 0 24 24">
    <path d="M22.54 16.88a17.93 17.93 0 0 1-5.65-.9 1 1 0 0 0-1 .25l-2.2 2.2a15.86 15.86 0 0 1-7.8-7.8l2.2-2.2a1 1 0 0 0 .25-1 17.93 17.93 0 0 1-.9-5.65A1 1 0 0 0 8.5 1H4a1 1 0 0 0-1 1C3 14.72 9.28 21 22 21a1 1 0 0 0 1-1v-4.5a1 1 0 0 0-.46-.62z"/>
  </symbol>

  <symbol id="icon-email" viewBox="0 0 24 24">
    <path d="M12 13.065 1.5 6.5v11a2 2 0 0 0 2 2h17a2 2 0 0 0 2-2v-11zM21.5 4.5h-19a2 2 0 0 0-1.5.67l10.5 7.5 10.5-7.5a2 2 0 0 0-1.5-.67z"/>
  </symbol>

  <symbol id="icon-close" viewBox="0 0 8 8">
  <path d="M7.41 1.41 6 0 4 2 2 0 .59 1.41 2.59 3.41.59 5.41 2 6.83 4 4.83 6 6.83 7.41 5.41 5.41 3.41 7.41 1.41z" />
</symbol>
</svg>
</svg>